/* XPM */
static const char * kingblack_xpm[] = {
"32 32 8 1",
" 	c None",
".	c #000000",
"+	c #A0A0A0",
"@	c #808080",
"#	c #DCDCDC",
"$	c #585858",
"%	c #FFFFFF",
"&	c #303030",
"                                ",
"                                ",
"            ........            ",
"          ..+++@@@@@..          ",
"        ..#+$$$$$$$$@@..        ",
"       .###...........@@.       ",
"      .%%$..............@.      ",
"     .%%.................@.     ",
"    .%%...................@.    ",
"    .%..........%.........@.    ",
"   .#%..........%..........@.   ",
"   .#..........$%$.........@.   ",
"  .++....#+....+%@....%+....@.  ",
"  .++....@%+...#%+...+%@....@.  ",
"  .+$....$#%...%##...%#$....@.  ",
"  .+$.....#%+..%##..+%+.....@.  ",
"  .+$.....+#%+.%##.+%#@.....@.  ",
"  .+$......#%%.%##.%%#......@.  ",
"  .+$......##%%%##%%#+......@.  ",
"  .@$......+#########@......@.  ",
"   .@.......#########......@.   ",
"   .@.......########+......@.   ",
"    .@......++++++++@.....@.    ",
"    .@.......&&&&&&&&&....@.    ",
"     .@..................@.     ",
"      .@................@.      ",
"       .@@............@@.       ",
"        ..@@........@@..        ",
"          ..@@@@@@@@..          ",
"            ........            ",
"                                ",
"                                "};
