/* XPM */
static const char * kingwhite_xpm[] = {
"32 32 8 1",
" 	c None",
".	c #000000",
"+	c #FFFFFF",
"@	c #DCDCDC",
"#	c #A0A0A0",
"$	c #303030",
"%	c #585858",
"&	c #808080",
"                                ",
"                                ",
"            ........            ",
"          ..++++++++..          ",
"        ..+++@@@@@@@##..        ",
"       .+++@@@@@@@@@@@##.       ",
"      .++@@@@@@@@@@@@@@@#.      ",
"     .++@@@@@@@@@@@@@@@@@#.     ",
"    .++@@@@@@@@@@@@@@@@@@@#.    ",
"    .+@@@@@@@@@+$@@@@@@@@@#.    ",
"   .+@@@@@@@@@@+$@@@@@@@@@@#.   ",
"   .+@@@@@@@@@@+$@@@@@@@@@@#.   ",
"  .++@@@@.+@@@@+$@@@@@+.@@@@#.  ",
"  .+@@@@@.$+@@+#.#@@@+%.@@@@#.  ",
"  .+@@@@@+$$@@+&$&@@+&.%@@@@#.  ",
"  .+@@@@@@%$#@+%$%@@+..#@@@@#.  ",
"  .+@@@@@@#$$++$$$@+&$%@@@@@#.  ",
"  .+@@@@@@@$$$+$$$+#$$#@@@@@#.  ",
"  .+@@@@@@@%$$&$$$&$$%@@@@@@#.  ",
"  .+@@@@@@@#$$$$$$$$$#@@@@@@#.  ",
"   .#@@@@@@@$$$$$$$$%@@@@@@#.   ",
"   .#@@@@@@@%$$$$$$$#@@@@@@#.   ",
"    .#@@@@@@#&&&&&&&@@@@@@#.    ",
"    .#@@@@@@@@@@@@@@@@@@@@#.    ",
"     .#@@@@@@@@@@@@@@@@@@#.     ",
"      .#@@@@@@@@@@@@@@@@#.      ",
"       .##@@@@@@@@@@@@##.       ",
"        ..##@@@@@@@@##..        ",
"          ..########..          ",
"            ........            ",
"                                ",
"                                "};
