/* XPM */
static const char * manblack_xpm[] = {
"32 32 8 1",
" 	c None",
".	c #000000",
"+	c #808080",
"@	c #DCDCDC",
"#	c #585858",
"$	c #FFFFFF",
"%	c #BDBDBD",
"&	c #A0A0A0",
"                                ",
"                                ",
"            ........            ",
"          ..++++++++..          ",
"        ..@+........++..        ",
"       .@@#...........++.       ",
"      .$$#..............+.      ",
"     .$$.......####......+.     ",
"    .$$......++######.....+.    ",
"    .$.....$$%++#..###....+.    ",
"   .@$....$$%.......###....+.   ",
"   .@....$$%.........##..##..   ",
"  .++....$%.....###..###.###..  ",
"  .+....+$%.....###...##.###..  ",
"  .+....+%........##.....###..  ",
"  .+....#+.........+#....###..  ",
"  .+...###.........%$....+##..  ",
"  .+...##....#.....$$...++##..  ",
"  .+...###...##...$$....%%++..  ",
"  .+....##....#+%$$%...@@$@#..  ",
"   .+...###.....$$.....@$$%..   ",
"   .+....#####........@$$$...   ",
"    .+....####.......@$$$@..    ",
"    .+......##.....@@$$$@...    ",
"     .+........+%@@$$$@@...     ",
"      .+.....#+++@$$@@%...      ",
"       .++.#####&@@$%....       ",
"        ..+.#####@......        ",
"          ............          ",
"            ........            ",
"                                ",
"                                "};
