/* XPM */
static const char * manwhite_xpm[] = {
"32 32 10 1",
" 	c None",
".	c #000000",
"+	c #D7D7D7",
"@	c #FFFFFF",
"#	c #F6F6F6",
"$	c #A0A0A0",
"%	c #DCDCDC",
"&	c #B3B3B3",
"*	c #808080",
"=	c #E1E1E1",
"                                ",
"                                ",
"            ........            ",
"          ..++++++++..          ",
"        ..+@@#@@@@@@$$..        ",
"       .+@@@%%%%%%%@@%$$.       ",
"      .+@@@%+&&&&&&&%@%%$.      ",
"     .+@@%+$&**$***$&%@@&$.     ",
"    .+@@%+&**%%%%%%**&%%%&$.    ",
"    .+@%+&*+@@@@@@@%%*&%@%$.    ",
"   .+@%+&*%@@%%%%%@@@%*&%@&$.   ",
"   .+@%&*%@@%$$$$$%%@@=*$@%$.   ",
"  .+@@+&*%@%$$****$=%@%*$%@&$.  ",
"  .+@%&*%@@%$***&&&&%@@+*$@%$.  ",
"  .+@%&*%@%$**&&+&&&%%@%*$@%$.  ",
"  .+@%&*%@%$**&++++&%%@%*$@%$.  ",
"  .+@%&*%@%$*&++%%+&%%@%*$@%$.  ",
"  .+#%&*%@%$*&+%%@@@%%@%*$@%$.  ",
"  .+@%&&%@%$*&&%+@@@%@@%*&#=$.  ",
"  .+#@=&*%@%$$&++@@@%@=&$==&$.  ",
"   .$@=&**%@%$$$&%%%@@=*&@=$.   ",
"   .$%@%&*%%@@%%%%%@@=*&@@=$.   ",
"    .$%%%&*%%@@@@@@@=*&@@=$.    ",
"    .$%@@%&**%=====&*&=@==$.    ",
"     .$%%@%&&******$&%@==$.     ",
"      .$%%@%%%=$$$$@@@#=$.      ",
"       .$$%%%@@@@@@%%=$$.       ",
"        ..$$%%%%%%%%$$..        ",
"          ..$$$$$$$$..          ",
"            ........            ",
"                                ",
"                                "};
